<?xml version="1.0" standalone="no"?>
<!DOCTYPE svg PUBLIC "-//W3C//DTD SVG 20010904//EN"
 "http://www.w3.org/TR/2001/REC-SVG-20010904/DTD/svg10.dtd">
<svg version="1.0" xmlns="http://www.w3.org/2000/svg"
 width="512.000000pt" height="512.000000pt" viewBox="0 0 512.000000 512.000000"
 preserveAspectRatio="xMidYMid meet">
<metadata>
Created by potrace 1.11, written by Peter Selinger 2001-2013
</metadata>
<g transform="translate(0.000000,512.000000) scale(0.100000,-0.100000)"
fill="#000000" stroke="none">
<path d="M1192 4419 c-13 -5 -35 -7 -48 -5 -14 3 -22 1 -19 -5 4 -5 10 -7 15
-4 5 3 11 1 15 -4 3 -6 -5 -8 -19 -5 -14 2 -28 -1 -31 -6 -5 -8 -15 -6 -32 5
-14 10 -23 13 -19 7 3 -5 -1 -12 -9 -16 -8 -3 -15 0 -15 7 0 9 -2 9 -8 0 -4
-6 -20 -10 -34 -9 -15 2 -26 0 -23 -3 2 -4 0 -13 -6 -21 -6 -10 -9 -11 -9 -2
0 6 -4 12 -9 12 -5 0 -16 -6 -23 -12 -7 -7 -24 -13 -38 -13 -14 0 -25 -5 -25
-12 0 -6 -3 -15 -7 -19 -5 -4 -8 -2 -8 5 0 8 -5 9 -19 2 -10 -6 -21 -7 -25 -3
-4 3 -4 -2 0 -11 3 -10 3 -17 -2 -16 -21 4 -35 -2 -29 -11 3 -5 -1 -10 -10
-10 -10 0 -13 5 -9 12 4 7 3 8 -5 4 -6 -4 -8 -12 -5 -18 5 -7 1 -9 -9 -5 -15
6 -22 -3 -18 -26 0 -4 -2 -6 -6 -6 -5 1 -18 1 -31 0 -19 -1 -22 -5 -17 -23 7
-23 7 -23 -9 -3 -9 11 -15 15 -14 9 2 -7 -1 -11 -6 -10 -5 0 -13 -9 -17 -22
-5 -13 -13 -21 -18 -17 -5 3 -12 1 -16 -5 -4 -6 -12 -7 -18 -3 -7 4 -5 -2 3
-12 14 -17 14 -18 -8 -6 -12 6 -21 8 -20 4 4 -13 -22 -54 -30 -49 -5 3 -14 0
-22 -6 -12 -8 -12 -9 3 -4 9 3 17 1 17 -4 0 -6 -7 -10 -15 -10 -8 0 -15 -5
-15 -10 0 -6 -7 -10 -17 -8 -11 2 -19 -7 -25 -31 -8 -27 -12 -32 -20 -20 -7
11 -9 9 -5 -8 4 -18 1 -23 -15 -23 -10 0 -16 -4 -13 -10 3 -5 1 -10 -5 -10 -6
0 -8 -4 -5 -10 6 -9 -8 -14 -28 -11 -5 1 -7 -4 -4 -11 2 -7 10 -12 16 -10 7 1
10 -2 6 -8 -3 -6 -11 -8 -16 -5 -5 4 -9 1 -9 -5 0 -6 -4 -9 -9 -5 -5 3 -12 1
-15 -4 -4 -5 2 -12 11 -14 17 -4 17 -5 1 -6 -11 -1 -18 -9 -18 -21 0 -13 -5
-18 -15 -14 -11 5 -15 -1 -15 -24 0 -17 -4 -34 -10 -37 -6 -4 -7 1 -4 12 6 15
4 15 -9 -2 -14 -18 -14 -21 1 -27 15 -6 15 -7 -2 -7 -13 -1 -17 -6 -13 -20 3
-15 0 -19 -14 -16 -12 3 -16 -1 -12 -11 3 -7 10 -11 16 -7 6 3 7 1 3 -6 -4 -6
-10 -9 -14 -7 -4 2 -14 -3 -22 -12 -13 -14 -12 -15 4 -9 14 6 16 4 9 -5 -6 -7
-9 -21 -8 -31 2 -9 -1 -15 -6 -11 -5 3 -6 10 -3 16 4 7 2 8 -4 4 -6 -4 -8 -14
-5 -23 5 -11 3 -14 -6 -8 -10 6 -11 3 -1 -15 11 -21 10 -22 -6 -16 -10 4 -15
4 -11 0 4 -4 1 -14 -5 -22 -10 -11 -8 -17 7 -29 16 -13 16 -14 3 -10 -10 3
-20 2 -23 -3 -4 -6 0 -10 7 -10 9 0 9 -3 -2 -10 -13 -9 -13 -10 0 -10 12 0 12
-2 2 -9 -8 -5 -12 -17 -10 -27 2 -11 -4 -26 -12 -34 -9 -8 -11 -11 -4 -7 7 4
15 4 18 -1 3 -6 -1 -12 -9 -16 -20 -7 -19 -33 2 -46 15 -9 14 -10 -7 -4 -22 6
-23 5 -11 -10 11 -13 11 -16 0 -16 -11 0 -11 -2 1 -9 8 -6 18 -7 24 -4 5 3 6
1 2 -5 -4 -6 -14 -8 -24 -5 -15 6 -15 4 1 -15 19 -20 18 -21 -5 -15 l-23 6 20
-19 c12 -10 16 -16 10 -12 -8 5 -10 -21 -9 -85 1 -72 4 -91 15 -89 9 1 8 -3
-4 -11 -20 -17 -23 -31 -4 -24 8 3 14 -1 14 -9 0 -7 -4 -11 -8 -9 -13 9 -16
-45 -3 -62 16 -22 17 -33 3 -33 -5 0 -7 5 -3 12 5 7 3 8 -6 3 -10 -6 -7 -13
11 -27 13 -11 17 -18 8 -15 -10 3 -15 -2 -15 -18 0 -13 4 -21 8 -19 5 3 5 10
2 16 -4 6 -3 9 2 5 5 -3 9 -33 8 -66 0 -34 4 -61 8 -61 5 0 6 4 3 10 -4 6 1 7
11 3 11 -4 13 -8 6 -11 -7 -2 -12 -10 -12 -18 0 -9 5 -12 10 -9 6 3 10 1 10
-4 0 -6 -5 -11 -12 -11 -6 0 -3 -7 8 -16 19 -15 19 -16 -1 -10 -19 6 -19 5 -2
-8 20 -15 23 -31 5 -20 -7 4 -3 -3 10 -16 22 -21 23 -23 6 -41 -15 -17 -15
-19 -2 -14 9 4 19 2 23 -4 3 -6 -1 -11 -11 -11 -16 0 -16 -1 1 -14 16 -11 17
-17 7 -29 -10 -12 -10 -16 3 -21 9 -3 13 -2 10 3 -3 5 0 13 6 17 7 4 9 3 5 -4
-3 -5 0 -13 6 -15 10 -4 10 -6 0 -6 -9 -1 -10 -6 -3 -20 6 -10 7 -21 4 -25 -3
-3 0 -6 8 -6 11 0 11 -2 -1 -10 -10 -6 -11 -10 -2 -10 6 0 12 -5 12 -11 0 -5
-6 -7 -13 -4 -6 4 -1 -3 12 -14 14 -13 18 -21 10 -21 -11 0 -11 -2 1 -9 8 -6
19 -7 25 -5 5 3 2 -1 -8 -9 -19 -16 -7 -34 15 -21 6 4 8 3 4 -4 -3 -6 -2 -13
2 -16 5 -3 8 -18 6 -33 -3 -29 9 -59 23 -56 4 1 7 -5 5 -13 -2 -8 2 -14 9 -14
8 0 8 -4 -1 -15 -10 -13 -9 -15 11 -15 19 0 21 -2 9 -10 -12 -7 -12 -10 -1
-10 8 0 11 -6 7 -16 -4 -10 0 -18 13 -21 12 -3 17 -11 14 -19 -3 -8 0 -14 7
-14 6 0 8 -5 5 -10 -3 -6 1 -13 9 -16 9 -3 14 -10 11 -14 -3 -4 2 -13 10 -20
8 -7 15 -21 15 -31 0 -11 5 -19 10 -19 6 0 10 -12 10 -26 0 -14 4 -23 10 -19
6 4 7 11 4 17 -4 6 -2 8 4 5 5 -4 9 -18 7 -32 -1 -14 2 -25 7 -25 5 0 6 -4 3
-10 -3 -5 0 -10 7 -10 7 0 19 -9 26 -21 8 -12 9 -19 4 -15 -5 3 -9 -1 -9 -8 0
-7 7 -13 16 -12 9 1 17 -8 19 -22 2 -12 8 -20 13 -17 5 4 9 -3 9 -15 0 -31 24
-52 40 -37 10 10 10 8 1 -10 -10 -19 -9 -23 4 -23 9 0 15 -9 15 -26 0 -14 4
-23 10 -19 5 3 10 1 10 -5 0 -6 4 -8 10 -5 6 3 7 -1 4 -9 -4 -9 -1 -16 6 -16
7 0 10 -6 7 -14 -3 -8 1 -17 10 -20 11 -5 14 -2 9 11 -6 14 -5 15 5 6 10 -10
9 -16 -2 -29 -9 -12 -10 -15 -1 -10 7 4 12 1 12 -8 0 -9 5 -16 11 -16 5 0 7 5
3 12 -4 7 -3 8 4 4 6 -4 8 -14 5 -23 -4 -11 -3 -14 5 -9 8 5 12 0 12 -13 0
-12 3 -20 8 -20 19 3 25 -2 12 -11 -11 -7 -11 -10 -2 -10 7 0 10 -6 7 -12 -4
-7 0 -5 8 5 14 16 15 16 21 1 4 -9 4 -19 1 -22 -3 -3 -5 1 -5 8 0 7 -2 11 -5
8 -8 -8 16 -58 28 -58 5 0 4 6 -2 14 -8 10 -9 16 -1 21 6 4 10 3 9 -2 -4 -16
23 -73 32 -67 5 3 9 -5 9 -17 0 -12 3 -20 6 -16 8 8 33 -16 27 -26 -2 -4 2 -7
10 -7 13 0 46 -31 62 -59 5 -9 4 -12 -3 -7 -7 4 -12 4 -12 1 0 -10 28 -35 39
-35 5 0 13 -4 16 -10 4 -6 -1 -7 -12 -3 -15 6 -16 5 -3 -9 12 -12 18 -13 29
-4 12 9 14 8 8 -6 -3 -10 -2 -18 3 -18 5 0 6 -8 3 -17 -6 -16 -5 -16 10 -4 15
12 17 11 17 -9 0 -15 5 -20 14 -17 10 4 13 1 10 -8 -3 -7 3 -16 15 -20 13 -4
21 -15 21 -29 0 -14 10 -28 25 -36 16 -8 24 -19 20 -28 -3 -9 0 -12 9 -9 9 4
17 -2 21 -14 4 -11 9 -18 12 -15 7 7 33 -19 33 -33 0 -6 5 -11 11 -11 6 0 9
-9 6 -20 -3 -14 -1 -18 6 -13 19 12 36 12 44 1 3 -6 1 -8 -5 -4 -6 3 -13 2
-17 -4 -3 -5 -1 -10 5 -10 6 0 8 -4 5 -10 -3 -6 1 -7 9 -4 12 4 16 0 16 -16 0
-18 4 -20 22 -14 20 6 21 5 9 -10 -9 -11 -10 -16 -2 -17 10 -1 17 -3 39 -8 4
-2 -2 -6 -13 -10 -18 -8 -16 -10 15 -19 19 -6 29 -11 23 -11 -7 -1 -13 -6 -13
-12 0 -5 4 -8 9 -4 5 3 12 1 16 -5 4 -6 11 -7 17 -4 7 4 8 2 4 -4 -4 -6 0 -24
9 -39 15 -27 16 -27 10 -3 -6 24 -5 24 10 -3 9 -15 21 -25 28 -22 7 4 4 0 -6
-8 -16 -13 -16 -15 -2 -21 9 -3 13 -2 10 4 -3 6 -1 10 4 10 10 0 15 -14 12
-32 -1 -7 28 -12 50 -10 3 1 6 -6 6 -13 0 -11 -4 -12 -14 -3 -7 6 -16 8 -20 4
-3 -3 -1 -6 5 -6 7 0 12 -7 12 -15 0 -8 6 -12 14 -9 15 6 40 -29 29 -40 -6 -6
12 -10 30 -7 5 1 11 -8 14 -19 4 -14 11 -19 21 -15 10 4 13 0 9 -14 -3 -14 2
-21 19 -25 17 -5 21 -11 17 -23 -5 -13 -2 -15 15 -11 16 5 20 2 17 -13 -2 -10
1 -21 6 -24 5 -4 7 -11 3 -16 -3 -5 -2 -9 3 -8 21 4 43 -2 43 -12 0 -5 -4 -7
-10 -4 -6 3 -7 -1 -4 -10 6 -14 8 -14 20 2 8 10 14 14 13 8 -3 -26 2 -55 10
-55 5 0 7 10 4 22 -2 13 4 6 15 -15 10 -20 21 -34 25 -30 4 3 7 1 7 -5 0 -7 5
-11 12 -9 7 1 12 -5 13 -13 0 -8 7 -15 16 -14 13 1 17 -8 21 -52 1 -6 7 -11
15 -11 9 0 10 4 1 14 -8 11 -7 12 6 7 9 -3 16 -14 16 -23 0 -9 9 -23 19 -31
11 -7 18 -17 15 -21 -2 -4 1 -11 7 -15 7 -4 9 -3 5 4 -3 6 -2 13 3 16 5 4 11
-4 13 -16 l3 -23 474 -3 c471 -3 474 -2 488 18 8 12 21 19 29 16 8 -3 11 0 8
8 -3 7 2 16 10 19 9 4 16 17 17 29 1 22 1 22 9 -2 8 -24 10 -22 14 7 0 7 3 12
6 11 13 -5 60 48 60 68 0 17 4 22 15 18 11 -4 15 1 15 17 0 16 3 20 8 11 6 -9
13 -7 29 10 28 32 40 53 23 43 -9 -6 -11 -4 -6 4 5 7 15 10 23 7 12 -5 14 -1
10 14 -5 18 -3 19 11 8 12 -10 14 -10 8 0 -6 11 4 17 26 13 4 0 5 6 2 14 -3 8
2 24 11 37 l17 23 -6 -25 c-6 -24 -6 -24 9 3 9 15 20 25 25 22 6 -4 10 5 10
19 0 16 6 26 15 26 8 0 15 5 15 11 0 5 5 7 10 4 6 -3 10 -2 10 4 0 5 -5 12
-10 14 -6 3 -5 4 2 3 7 -1 19 3 26 11 8 7 17 11 21 9 4 -3 8 1 8 9 0 11 -4 12
-13 4 -8 -7 -14 -6 -20 2 -4 7 -3 9 4 5 6 -3 18 4 26 16 15 21 22 14 17 -15
-1 -5 3 -6 8 -2 6 3 8 12 4 20 -3 8 0 15 7 15 10 0 10 3 1 14 -10 12 -9 14 6
12 18 -3 53 33 53 53 0 12 16 15 23 4 2 -5 2 -2 1 5 -2 6 1 12 6 12 6 0 10 9
10 21 0 17 4 19 22 13 19 -6 21 -5 10 8 -10 12 -9 18 6 30 9 9 25 14 35 13 11
-2 16 -1 13 2 -3 4 0 13 7 22 11 14 10 14 -6 2 -9 -8 -20 -11 -24 -7 -3 3 -1
6 6 6 7 0 10 4 7 8 -3 5 1 9 9 10 8 1 22 3 30 4 12 1 12 4 2 17 -8 9 -8 12 -1
8 14 -8 27 20 17 36 -4 7 0 7 9 -1 18 -15 27 -6 22 23 -3 20 -3 20 12 1 12
-17 20 -10 12 10 -2 3 5 10 15 15 9 6 17 16 17 24 0 7 9 16 20 20 11 3 19 9
19 13 -4 22 3 30 24 25 15 -3 18 -2 9 5 -11 7 -10 12 3 26 9 9 22 13 28 9 7
-4 6 1 -2 10 -12 15 -12 17 4 11 14 -6 16 -4 10 6 -6 10 -4 12 9 7 9 -4 15 -3
11 2 -3 5 0 15 7 23 7 7 19 25 27 40 8 16 16 26 19 23 3 -2 -1 -11 -8 -20 -7
-9 -10 -18 -8 -21 3 -3 12 8 19 24 9 20 18 28 28 24 13 -5 12 -2 -1 12 -23 23
-23 23 13 20 23 -2 28 1 20 9 -16 16 -14 25 7 23 11 -1 16 5 14 17 -2 11 4 17
15 17 15 0 16 2 3 10 -13 9 -13 10 1 10 18 0 62 44 53 52 -3 4 -1 15 6 25 10
15 11 16 6 1 -3 -10 -1 -20 5 -23 5 -4 9 -3 8 2 -4 22 2 34 14 27 10 -6 10 -4
0 7 -7 7 -13 18 -13 24 0 5 5 3 10 -5 8 -12 11 -11 16 8 4 13 12 21 19 18 16
-6 28 21 14 29 -15 10 0 25 19 18 14 -6 15 -4 5 9 -15 17 -7 29 13 21 17 -6
18 9 3 24 -9 9 -7 10 10 6 15 -4 21 -1 21 11 0 10 4 14 10 11 6 -3 10 -2 10 3
0 4 10 19 22 32 16 17 18 22 6 17 -12 -4 -15 -2 -11 8 3 8 9 12 14 9 18 -11
31 7 17 24 -11 13 -10 15 4 9 13 -5 19 0 24 18 3 14 12 25 19 25 7 0 16 7 19
16 5 14 4 15 -8 5 -11 -9 -16 -9 -22 1 -4 7 -4 10 1 6 13 -12 34 12 28 30 -5
15 -4 15 8 2 8 -8 13 -13 12 -11 -1 2 4 18 12 36 7 19 10 36 7 40 -4 3 1 3 10
0 9 -4 19 -1 24 6 4 7 3 10 -4 5 -6 -3 -9 1 -7 11 1 10 8 17 15 15 18 -4 31
19 23 43 -5 17 -4 18 9 7 13 -10 15 -8 14 15 -1 21 4 28 16 27 10 -1 16 2 13
6 -3 5 -1 11 5 15 5 3 10 13 10 21 0 8 -4 12 -10 9 -6 -3 -10 -4 -10 0 0 3 12
10 28 16 26 10 27 11 7 26 l-20 15 20 -4 c16 -2 20 2 18 22 -1 14 0 19 3 12 3
-6 10 -9 15 -6 6 3 5 12 -3 22 -10 12 -10 14 0 8 8 -4 13 -1 14 11 0 10 2 23
2 30 1 6 5 15 10 20 5 4 6 3 2 -4 -3 -6 -2 -14 4 -18 5 -3 10 -3 11 2 4 45 17
75 29 68 6 -3 7 1 4 9 -4 10 -1 16 7 16 11 0 11 3 -1 10 -13 9 -13 10 0 10 12
0 12 2 2 9 -10 6 -9 10 7 14 15 4 19 10 14 23 -4 10 -2 15 3 11 11 -6 11 33 0
51 -4 7 -4 11 1 10 4 -2 19 5 33 15 13 9 19 17 12 17 -6 0 -12 9 -12 21 0 13
4 18 13 13 7 -5 7 -2 -2 10 -8 9 -10 16 -5 15 5 -1 15 -1 23 0 11 1 11 4 0 18
-11 13 -11 15 -1 9 10 -6 13 -2 10 15 -2 16 2 23 10 21 8 -1 11 2 8 7 -4 5 0
12 6 15 7 3 2 3 -11 0 -16 -4 -21 -3 -17 5 4 6 14 11 23 11 9 0 13 6 9 15 -3
8 0 15 6 15 6 0 3 9 -7 20 -16 17 -16 20 -3 15 14 -5 16 -1 14 22 -3 29 13 65
25 57 9 -5 6 17 -5 35 -7 11 -5 13 9 7 14 -5 16 -4 7 7 -7 8 -9 17 -5 20 3 4
1 12 -4 19 -12 15 18 73 31 61 4 -4 4 1 0 11 -4 11 -2 21 7 27 12 7 12 9 -1 9
-13 0 -13 1 0 10 10 6 11 10 3 10 -7 0 -13 5 -13 11 0 5 5 7 10 4 10 -6 12 -2
13 33 1 9 6 21 12 25 6 5 2 6 -8 3 -12 -4 -17 -2 -14 6 2 7 10 12 17 10 10 -2
11 1 3 10 -15 20 -23 59 -10 51 6 -4 8 0 4 10 -3 10 -3 17 2 17 9 0 7 68 -4
93 -4 10 -3 29 3 43 7 15 8 24 2 24 -6 0 -10 -5 -10 -12 0 -6 -2 -9 -5 -6 -9
9 7 38 17 32 6 -4 5 2 -1 14 -6 11 -8 22 -3 25 4 2 2 2 -5 1 -7 -2 -15 2 -19
8 -4 6 -3 8 4 4 6 -3 13 -2 17 4 3 5 0 10 -8 10 -7 0 -14 7 -14 15 0 8 4 15 9
15 4 0 8 -5 8 -12 0 -6 3 -8 7 -5 3 4 -3 16 -15 27 -23 22 -31 40 -9 22 9 -8
12 -5 12 13 0 15 -4 20 -10 15 -6 -5 -17 -4 -25 2 -12 8 -12 9 3 4 11 -3 17 0
17 10 0 8 -4 13 -9 9 -5 -3 -13 0 -17 6 -4 7 -3 9 4 5 6 -3 13 -2 17 4 6 9 -8
15 -29 11 -5 -1 -4 5 4 13 10 13 10 16 0 16 -9 0 -10 3 -1 13 13 17 5 27 -17
20 -15 -4 -15 -3 -2 9 16 13 16 48 -1 48 -5 0 -9 14 -9 30 0 30 -15 41 -22 18
-3 -8 -7 -6 -11 5 -3 9 -3 16 1 16 4 -1 14 -1 22 1 11 1 9 4 -5 9 -13 6 -20
18 -20 37 0 16 -6 28 -12 27 -6 -1 -17 4 -23 13 -11 12 -10 13 6 7 17 -6 17
-5 5 10 -7 9 -18 14 -25 10 -6 -3 -6 0 2 8 17 18 15 34 -3 19 -16 -13 -18 -9
-15 28 1 12 -4 22 -10 22 -6 0 -8 5 -4 13 5 7 0 6 -11 -3 -17 -14 -18 -13 -13
7 4 16 0 23 -16 28 -21 6 -21 6 -1 15 11 5 15 9 9 9 -17 1 -58 40 -51 48 4 3
2 12 -4 20 -10 11 -14 10 -24 -3 -10 -15 -11 -12 -7 15 3 26 1 30 -12 25 -11
-4 -16 -1 -16 10 0 9 -5 16 -11 16 -5 0 -7 4 -4 10 3 6 -1 7 -9 4 -11 -4 -16
0 -16 10 0 9 -6 16 -14 16 -17 0 -58 49 -51 61 3 4 -3 6 -14 4 -10 -2 -29 6
-42 18 -13 12 -27 21 -31 20 -5 -2 -8 6 -8 16 0 14 -6 19 -24 17 -17 -2 -23 1
-19 10 3 9 -2 14 -12 14 -9 0 -14 4 -11 8 3 5 -1 9 -9 9 -8 0 -12 -4 -9 -9 3
-4 0 -8 -5 -8 -6 0 -11 9 -11 20 0 16 -7 20 -30 20 -20 0 -30 5 -30 15 0 9 -6
12 -15 9 -8 -4 -12 -11 -8 -17 3 -6 1 -7 -6 -3 -8 6 -9 11 -1 20 8 10 2 13
-24 11 -32 -1 -34 0 -24 19 10 18 9 19 -4 8 -13 -10 -17 -10 -21 3 -4 8 -13
12 -22 9 -8 -3 -12 -11 -8 -17 4 -6 1 -7 -6 -3 -7 5 -10 15 -7 23 3 8 2 11 -3
8 -5 -3 -12 -1 -16 5 -4 6 -10 8 -15 5 -5 -3 -20 -1 -34 5 -14 5 -26 6 -26 1
0 -4 -13 -6 -30 -3 -16 2 -27 8 -24 13 3 5 -4 9 -16 9 -12 0 -30 5 -40 10 -16
8 -18 8 -14 -5 3 -8 11 -12 18 -8 6 3 7 2 3 -2 -12 -14 -37 -15 -34 -2 1 7
-11 11 -31 10 -21 -1 -30 2 -26 9 4 7 2 8 -4 4 -23 -14 -56 -16 -64 -3 -4 7
-8 8 -8 1 0 -6 -18 -9 -45 -8 -25 1 -43 -1 -40 -6 3 -5 1 -12 -5 -15 -6 -4 -9
-1 -8 7 2 9 -10 13 -42 14 -53 0 -72 -5 -64 -17 3 -5 -9 -9 -26 -9 -21 0 -29
-4 -24 -12 5 -8 3 -8 -7 -2 -18 11 -70 13 -63 2 3 -5 9 -6 14 -3 5 3 12 0 16
-6 4 -7 3 -9 -4 -5 -6 3 -13 2 -16 -2 -3 -5 -19 -8 -36 -7 -16 1 -30 -3 -30
-8 0 -5 -7 -4 -15 3 -15 12 -16 11 -19 -12 0 -7 -10 -14 -21 -15 -11 -2 -14 0
-7 3 6 3 12 10 12 16 0 6 -9 3 -20 -7 -11 -10 -20 -15 -20 -10 0 4 -6 2 -13
-4 -8 -6 -18 -7 -22 -3 -5 4 -5 2 -2 -5 4 -6 17 -9 30 -7 l22 5 -23 -10 c-12
-6 -29 -8 -37 -5 -8 4 -15 1 -15 -5 0 -6 -5 -11 -11 -11 -5 0 -7 5 -3 12 4 7
3 8 -5 4 -7 -5 -9 -17 -5 -29 6 -22 6 -22 -11 -2 -9 11 -13 14 -9 6 5 -11 3
-13 -11 -7 -15 5 -16 4 -5 -9 12 -14 10 -14 -16 -5 l-28 11 19 -22 20 -22 -22
12 c-21 11 -27 8 -24 -11 0 -4 -6 -5 -13 -2 -8 3 -23 -3 -34 -14 -11 -11 -24
-17 -28 -14 -5 4 -2 -2 6 -12 10 -13 10 -17 3 -12 -7 4 -13 3 -13 -2 0 -5 -11
-8 -25 -7 -14 2 -23 -1 -19 -6 3 -5 10 -6 16 -3 7 5 8 2 4 -5 -5 -7 -14 -10
-22 -7 -8 3 -14 -1 -14 -11 0 -12 -3 -13 -15 -3 -12 10 -14 8 -10 -9 3 -15 -1
-21 -15 -21 -10 0 -22 -5 -26 -12 -4 -7 -3 -8 4 -4 8 5 10 2 6 -8 -5 -12 -10
-13 -26 -5 -14 7 -18 8 -14 0 8 -12 -58 -83 -68 -73 -4 3 -4 -2 0 -13 7 -18 6
-19 -11 -5 -10 8 -16 10 -12 3 8 -13 -27 -56 -37 -46 -3 4 -6 -1 -6 -11 0 -10
5 -14 12 -10 7 4 8 3 4 -5 -4 -6 -12 -9 -17 -5 -14 8 -40 -16 -32 -29 4 -6 0
-8 -9 -4 -12 4 -15 0 -13 -19 1 -15 -4 -28 -11 -31 -8 -3 -11 -9 -8 -14 3 -5
-3 -6 -12 -2 -14 5 -16 2 -11 -16 4 -18 3 -20 -9 -10 -11 9 -14 8 -14 -5 0
-10 -4 -15 -9 -11 -6 3 -8 -6 -5 -22 5 -27 5 -27 -11 -8 -9 11 -14 15 -12 10
8 -15 -20 -75 -35 -75 -9 0 -9 -3 2 -10 11 -7 11 -10 2 -10 -7 0 -11 -4 -8 -9
7 -10 -19 -34 -40 -37 -8 -1 -15 2 -15 7 -1 5 -2 15 -3 22 -1 6 -9 11 -19 11
-9 -1 -17 2 -17 7 0 5 8 9 18 10 13 0 12 2 -5 9 -14 6 -21 15 -17 24 3 8 0 17
-7 22 -8 5 -10 3 -4 -7 6 -10 5 -11 -4 -3 -7 6 -13 21 -14 33 -1 11 -5 21 -10
21 -4 0 -5 6 -1 13 5 8 2 7 -9 -2 -15 -12 -17 -12 -11 2 3 9 -1 26 -10 39 -9
12 -16 17 -16 11 0 -7 5 -15 10 -18 6 -3 10 -12 9 -18 0 -9 -2 -8 -6 1 -2 6
-10 9 -15 6 -7 -4 -8 -2 -4 4 4 7 3 12 -3 12 -6 0 -8 7 -5 15 4 9 0 15 -10 15
-9 0 -16 8 -16 19 0 11 -9 21 -21 24 -14 4 -18 10 -13 18 5 9 2 10 -11 5 -15
-5 -16 -4 -6 8 9 11 9 16 0 22 -8 4 -9 3 -5 -4 4 -7 2 -12 -3 -12 -6 0 -12 5
-12 10 -1 6 -2 16 -3 23 -1 6 -10 11 -20 9 -14 -3 -16 1 -10 20 6 20 5 21 -10
9 -9 -8 -19 -11 -23 -7 -3 3 -1 6 6 6 7 0 9 5 6 10 -4 6 -10 8 -14 6 -4 -3
-13 0 -21 6 -13 8 -12 9 2 5 9 -3 19 0 21 7 4 9 -1 12 -13 9 -10 -3 -21 1 -25
8 -6 8 -4 10 6 4 12 -8 12 -6 0 8 -15 18 -26 23 -16 7 3 -5 1 -10 -4 -10 -6 0
-11 10 -11 23 0 18 -2 19 -10 7 -8 -13 -10 -12 -10 3 0 10 -8 17 -20 17 -11 0
-20 5 -20 11 0 5 6 7 13 3 7 -5 7 -1 -2 10 -9 10 -23 15 -34 12 -13 -3 -17 0
-13 9 6 17 -21 28 -28 12 -4 -7 -4 -2 -2 10 5 26 -9 40 -20 22 -5 -8 -3 -9 6
-4 9 6 11 4 6 -4 -9 -14 -21 -6 -21 12 0 7 -10 11 -23 11 -18 -1 -20 1 -11 12
11 14 9 16 -21 18 -8 1 -14 7 -12 14 1 7 -1 11 -5 11 -24 -4 -43 2 -37 12 4 7
-2 6 -17 -2 -22 -11 -23 -11 -10 5 12 14 12 16 -4 10 -13 -5 -16 -4 -11 4 6
11 -11 15 -41 11 -3 0 -10 6 -15 15 -5 8 -15 13 -22 10 -8 -3 -17 0 -22 7 -5
8 -3 10 6 4 9 -5 11 -4 6 3 -5 9 -13 9 -26 2 -13 -7 -21 -7 -25 0 -4 6 -11 8
-16 5 -5 -3 -6 0 -3 8 3 10 -5 13 -33 11 -21 -1 -45 2 -53 7 -10 5 -11 8 -2 9
28 0 9 17 -20 18 -63 0 -69 2 -62 14 5 8 3 8 -7 2 -18 -11 -70 -13 -63 -2 3 4
0 8 -6 8 -6 0 -8 4 -5 10 4 6 -2 7 -17 2 -13 -5 -61 -7 -108 -6 -64 2 -88 -2
-96 -12 -10 -13 -12 -12 -18 1 -4 11 -2 14 6 9 7 -4 8 -3 4 4 -4 7 -8 12 -9
11 -1 0 -13 -4 -25 -10z m2458 -17 c0 -4 -9 -8 -20 -9 -11 -1 -20 2 -20 5 0 4
9 8 20 9 11 1 20 -2 20 -5z m40 4 c0 -2 -7 -7 -16 -10 -8 -3 -12 -2 -9 4 6 10
25 14 25 6z m452 -42 c-4 -10 -17 -8 -42 6 -10 6 -6 8 15 6 17 -2 28 -7 27
-12z m-3252 -30 c0 -8 -19 -13 -24 -6 -3 5 1 9 9 9 8 0 15 -2 15 -3z m-60 -28
c0 -3 -4 -8 -10 -11 -5 -3 -10 -1 -10 4 0 6 5 11 10 11 6 0 10 -2 10 -4z
m2305 -106 c-3 -5 -12 -10 -18 -10 -7 0 -6 4 3 10 19 12 23 12 15 0z m-2680
-159 c3 -5 2 -12 -3 -15 -5 -3 -9 1 -9 9 0 17 3 19 12 6z m2329 -167 c3 -8 2
-12 -4 -9 -6 3 -10 10 -10 16 0 14 7 11 14 -7z m-2622 -346 c-7 -7 -12 -8 -12
-2 0 14 12 26 19 19 2 -3 -1 -11 -7 -17z m4848 -248 c0 -5 -4 -10 -10 -10 -5
0 -10 5 -10 10 0 6 5 10 10 10 6 0 10 -4 10 -10z m4 -126 c3 -8 2 -12 -4 -9
-6 3 -10 10 -10 16 0 14 7 11 14 -7z m-4893 -47 c-10 -9 -11 -8 -5 6 3 10 9
15 12 12 3 -3 0 -11 -7 -18z m4896 -3 c-3 -3 -12 -4 -19 -1 -8 3 -5 6 6 6 11
1 17 -2 13 -5z m-4883 -160 c3 -8 2 -12 -4 -9 -6 3 -10 10 -10 16 0 14 7 11
14 -7z m31 -163 c3 -5 2 -12 -3 -15 -5 -3 -9 1 -9 9 0 17 3 19 12 6z m165
-541 c0 -5 -5 -10 -11 -10 -5 0 -7 5 -4 10 3 6 8 10 11 10 2 0 4 -4 4 -10z
m4325 -290 c-3 -5 -12 -10 -18 -10 -7 0 -6 4 3 10 19 12 23 12 15 0z m-260
-400 c-3 -5 -12 -10 -18 -10 -7 0 -6 4 3 10 19 12 23 12 15 0z m-185 -244 c0
-3 -4 -8 -10 -11 -5 -3 -10 -1 -10 4 0 6 5 11 10 11 6 0 10 -2 10 -4z m-3030
-306 c0 -5 -2 -10 -4 -10 -3 0 -8 5 -11 10 -3 6 -1 10 4 10 6 0 11 -4 11 -10z
m2420 -384 c0 -2 -8 -10 -17 -17 -16 -13 -17 -12 -4 4 13 16 21 21 21 13z
m-1790 -306 c0 -5 -2 -10 -4 -10 -3 0 -8 5 -11 10 -3 6 -1 10 4 10 6 0 11 -4
11 -10z m1460 -55 c0 -2 -6 -8 -13 -14 -10 -8 -14 -7 -14 2 0 8 6 14 14 14 7
0 13 -1 13 -2z m-90 -100 c0 -2 -10 -10 -22 -16 -21 -11 -22 -11 -9 4 13 16
31 23 31 12z"/>
<path d="M1085 4411 c-3 -5 0 -13 6 -17 7 -4 9 -3 5 4 -3 5 0 13 6 15 9 4 10
6 1 6 -6 1 -14 -3 -18 -8z"/>
<path d="M1486 4412 c-3 -5 1 -9 9 -9 8 0 15 4 15 9 0 4 -4 8 -9 8 -6 0 -12
-4 -15 -8z"/>
<path d="M1635 4370 c-3 -5 -1 -10 4 -10 6 0 11 5 11 10 0 6 -2 10 -4 10 -3 0
-8 -4 -11 -10z"/>
<path d="M3436 4368 c3 -5 10 -6 15 -3 13 9 11 12 -6 12 -8 0 -12 -4 -9 -9z"/>
<path d="M1727 4345 c3 -8 9 -12 14 -9 12 7 11 11 -5 17 -10 4 -13 1 -9 -8z"/>
<path d="M4516 4178 c3 -4 9 -8 15 -8 5 0 9 4 9 8 0 5 -7 9 -15 9 -8 0 -12 -4
-9 -9z"/>
<path d="M4580 4126 c0 -2 7 -9 15 -16 13 -11 14 -10 9 4 -5 14 -24 23 -24 12z"/>
<path d="M2700 3820 c-8 -5 -10 -10 -5 -10 6 0 17 5 25 10 8 5 11 10 5 10 -5
0 -17 -5 -25 -10z"/>
<path d="M2506 3682 c-3 -5 1 -9 9 -9 8 0 15 4 15 9 0 4 -4 8 -9 8 -6 0 -12
-4 -15 -8z"/>
<path d="M2561 3621 c-8 -5 -9 -11 -3 -15 5 -3 15 1 22 9 14 16 3 20 -19 6z"/>
<path d="M4972 2810 c-9 -14 -8 -21 3 -30 11 -9 13 -7 11 7 -2 10 1 21 6 24 6
4 6 9 1 12 -5 3 -14 -3 -21 -13z"/>
<path d="M4949 2678 c-6 -20 -5 -38 1 -48 5 -7 7 0 6 19 -1 26 -4 39 -7 29z"/>
<path d="M170 2600 c0 -5 5 -10 11 -10 5 0 7 5 4 10 -3 6 -8 10 -11 10 -2 0
-4 -4 -4 -10z"/>
<path d="M4846 2352 c-2 -4 -1 -14 4 -22 7 -11 9 -9 7 8 -1 24 -3 26 -11 14z"/>
<path d="M278 2293 c6 -2 9 -10 6 -15 -4 -7 -2 -8 5 -4 13 9 5 26 -12 25 -9 0
-8 -2 1 -6z"/>
<path d="M940 1250 c8 -5 15 -14 15 -20 0 -5 3 -10 8 -10 4 0 10 0 14 0 3 0
-2 9 -12 20 -10 11 -23 20 -29 20 -6 0 -4 -5 4 -10z"/>
<path d="M3695 720 c-3 -5 -1 -10 4 -10 6 0 11 5 11 10 0 6 -2 10 -4 10 -3 0
-8 -4 -11 -10z"/>
<path d="M1661 434 c0 -11 3 -14 6 -6 3 7 2 16 -1 19 -3 4 -6 -2 -5 -13z"/>
</g>
</svg>
